<?xml version="1.0" encoding="UTF-8" standalone="no"?>
<svg
   width="20"
   height="20"
   viewBox="0 0 20 20"
   fill="none"
   version="1.1"
   id="svg1"
   xmlns="http://www.w3.org/2000/svg"
   xmlns:svg="http://www.w3.org/2000/svg">
  <defs
     id="defs1" />
  <path
     d="m 18.5714,11.4286 h -7.1428 v 7.1428 c 0,0.3789 -0.1505,0.7423 -0.4184,1.0102 C 10.7422,19.8495 10.3789,20 10,20 9.62112,20 9.25776,19.8495 8.98985,19.5816 8.72194,19.3137 8.57143,18.9503 8.57143,18.5714 V 11.4286 H 1.42857 c -0.37888,0 -0.742242,-0.1505 -1.010151,-0.4184 C 0.15051,10.7422 0,10.3789 0,10 0,9.62112 0.15051,9.25776 0.418419,8.98985 0.686328,8.72194 1.04969,8.57143 1.42857,8.57143 H 8.57143 V 1.42857 c 0,-0.37888 0.15051,-0.742242 0.41842,-1.010151 C 9.25776,0.150509 9.62112,0 10,0 c 0.3789,0 0.7422,0.150509 1.0102,0.418419 0.2679,0.267909 0.4184,0.631271 0.4184,1.010151 v 7.14286 h 7.1428 c 0.3789,0 0.7423,0.15051 1.0102,0.41842 C 19.8495,9.25776 20,9.62112 20,10 c 0,0.3789 -0.1505,0.7422 -0.4184,1.0102 -0.2679,0.2679 -0.6313,0.4184 -1.0102,0.4184 z"
     fill="#C9DDFF"
     id="path1"
     style="fill:#00991e;fill-opacity:1" />
</svg>
