<?xml version="1.0" encoding="UTF-8" standalone="no"?>
<svg
   width="30"
   height="30"
   viewBox="0 0 30 30"
   fill="none"
   version="1.1"
   id="svg1"
   sodipodi:docname="add-meeting-dark-1.svg"
   inkscape:version="1.3.2 (091e20ef0f, 2023-11-25)"
   xmlns:inkscape="http://www.inkscape.org/namespaces/inkscape"
   xmlns:sodipodi="http://sodipodi.sourceforge.net/DTD/sodipodi-0.dtd"
   xmlns="http://www.w3.org/2000/svg"
   xmlns:svg="http://www.w3.org/2000/svg">
  <defs
     id="defs1" />
  <sodipodi:namedview
     id="namedview1"
     pagecolor="#ffffff"
     bordercolor="#999999"
     borderopacity="1"
     inkscape:showpageshadow="2"
     inkscape:pageopacity="0"
     inkscape:pagecheckerboard="0"
     inkscape:deskcolor="#d1d1d1"
     inkscape:zoom="21.266667"
     inkscape:cx="14.976489"
     inkscape:cy="14.976489"
     inkscape:window-width="1920"
     inkscape:window-height="1011"
     inkscape:window-x="0"
     inkscape:window-y="32"
     inkscape:window-maximized="1"
     inkscape:current-layer="svg1" />
  <path
     d="M27.8571 17.1429H17.1429V27.8571C17.1429 28.4255 16.9171 28.9705 16.5152 29.3724C16.1134 29.7742 15.5683 30 15 30C14.4317 30 13.8866 29.7742 13.4848 29.3724C13.0829 28.9705 12.8571 28.4255 12.8571 27.8571V17.1429H2.14286C1.57454 17.1429 1.02949 16.9171 0.627629 16.5152C0.225765 16.1134 0 15.5683 0 15C0 14.4317 0.225765 13.8866 0.627629 13.4848C1.02949 13.0829 1.57454 12.8571 2.14286 12.8571H12.8571V2.14286C12.8571 1.57454 13.0829 1.02949 13.4848 0.627628C13.8866 0.225764 14.4317 0 15 0C15.5683 0 16.1134 0.225764 16.5152 0.627628C16.9171 1.02949 17.1429 1.57454 17.1429 2.14286V12.8571H27.8571C28.4255 12.8571 28.9705 13.0829 29.3724 13.4848C29.7742 13.8866 30 14.4317 30 15C30 15.5683 29.7742 16.1134 29.3724 16.5152C28.9705 16.9171 28.4255 17.1429 27.8571 17.1429Z"
     fill="white"
     id="path1"
     style="fill:#000000;fill-opacity:1" />
</svg>
