<?xml version="1.0" encoding="UTF-8" standalone="no"?>
<svg
   width="24"
   height="24"
   viewBox="0 0 24 24"
   fill="none"
   version="1.1"
   id="svg3"
   sodipodi:docname="hamburger.svg"
   inkscape:version="1.3.2 (091e20ef0f, 2023-11-25)"
   xmlns:inkscape="http://www.inkscape.org/namespaces/inkscape"
   xmlns:sodipodi="http://sodipodi.sourceforge.net/DTD/sodipodi-0.dtd"
   xmlns="http://www.w3.org/2000/svg"
   xmlns:svg="http://www.w3.org/2000/svg">
  <defs
     id="defs3" />
  <sodipodi:namedview
     id="namedview3"
     pagecolor="#ffffff"
     bordercolor="#999999"
     borderopacity="1"
     inkscape:showpageshadow="2"
     inkscape:pageopacity="0"
     inkscape:pagecheckerboard="0"
     inkscape:deskcolor="#d1d1d1"
     inkscape:zoom="26.583333"
     inkscape:cx="11.981191"
     inkscape:cy="11.981191"
     inkscape:window-width="1920"
     inkscape:window-height="1011"
     inkscape:window-x="0"
     inkscape:window-y="32"
     inkscape:window-maximized="1"
     inkscape:current-layer="svg3" />
  <path
     d="M20.05 11H3.95C3.42533 11 3 11.4253 3 11.95V12.05C3 12.5747 3.42533 13 3.95 13H20.05C20.5747 13 21 12.5747 21 12.05V11.95C21 11.4253 20.5747 11 20.05 11Z"
     fill="#FFF"
     id="path1"
     style="fill:#00991c;fill-opacity:1" />
  <path
     d="M20.05 16H3.95C3.42533 16 3 16.4253 3 16.95V17.05C3 17.5747 3.42533 18 3.95 18H20.05C20.5747 18 21 17.5747 21 17.05V16.95C21 16.4253 20.5747 16 20.05 16Z"
     fill="#FFF"
     id="path2"
     style="fill:#00991c;fill-opacity:1" />
  <path
     d="M20.05 6H3.95C3.42533 6 3 6.42533 3 6.95V7.05C3 7.57467 3.42533 8 3.95 8H20.05C20.5747 8 21 7.57467 21 7.05V6.95C21 6.42533 20.5747 6 20.05 6Z"
     fill="#FFF"
     id="path3"
     style="fill:#00991c;fill-opacity:1" />
</svg>
