<?xml version="1.0" encoding="UTF-8" standalone="no"?>
<svg
   width="20"
   height="20"
   viewBox="0 0 20 20"
   fill="none"
   version="1.1"
   id="svg3"
   xmlns="http://www.w3.org/2000/svg"
   xmlns:svg="http://www.w3.org/2000/svg">
  <defs
     id="defs3" />
  <path
     fill-rule="evenodd"
     clip-rule="evenodd"
     d="m 5,0 c 0.55228,0 1,0.44772 1,1 v 1 h 8 V 1 c 0,-0.55228 0.4477,-1 1,-1 0.5523,0 1,0.44772 1,1 v 1 h 1 c 1.6569,0 3,1.34315 3,3 v 7 c 0,0.5523 -0.4477,1 -1,1 -0.5523,0 -1,-0.4477 -1,-1 V 8 H 2 v 9 c 0,0.5523 0.44772,1 1,1 h 5 c 0.5523,0 1,0.4477 1,1 0,0.5523 -0.4477,1 -1,1 H 3 C 1.34315,20 0,18.6569 0,17 V 5 C 0,3.34315 1.34315,2 3,2 H 4 V 1 C 4,0.44772 4.44772,0 5,0 Z M 3,4 C 2.44772,4 2,4.44772 2,5 V 6 H 18 V 5 C 18,4.44772 17.5523,4 17,4 Z"
     fill="#C9DDFF"
     id="path1"
     style="fill:#00991c;fill-opacity:1" />
  <path
     d="m 14.7071,15.7071 c 0.3905,-0.3905 0.3905,-1.0237 0,-1.4142 -0.3905,-0.3905 -1.0237,-0.3905 -1.4142,0 l -2,2 c -0.3905,0.3905 -0.3905,1.0237 0,1.4142 l 2,2 c 0.3905,0.3905 1.0237,0.3905 1.4142,0 0.3905,-0.3905 0.3905,-1.0237 0,-1.4142 L 13.4142,17 Z"
     fill="#C9DDFF"
     id="path2"
     style="fill:#00991c;fill-opacity:1" />
  <path
     d="m 19.7071,14.2929 c 0.3905,0.3905 0.3905,1.0237 0,1.4142 L 18.4142,17 l 1.2929,1.2929 c 0.3905,0.3905 0.3905,1.0237 0,1.4142 -0.3905,0.3905 -1.0237,0.3905 -1.4142,0 l -2,-2 c -0.3905,-0.3905 -0.3905,-1.0237 0,-1.4142 l 2,-2 c 0.3905,-0.3905 1.0237,-0.3905 1.4142,0 z"
     fill="#C9DDFF"
     id="path3"
     style="fill:#00991c;fill-opacity:1" />
</svg>
