<?xml version="1.0" encoding="UTF-8" standalone="no"?>
<svg
   width="33"
   height="26"
   viewBox="0 0 33 26"
   fill="none"
   version="1.1"
   id="svg2"
   xmlns="http://www.w3.org/2000/svg"
   xmlns:svg="http://www.w3.org/2000/svg">
  <defs
     id="defs2" />
  <path
     fill-rule="evenodd"
     clip-rule="evenodd"
     d="m 23.4452,18.3074 c 0.1213,2.7481 -2.0966,5.0719 -4.9534,5.1887 C 18.2814,23.505 8.02284,23.4843 8.02284,23.4843 5.17982,23.7001 2.6916,21.6572 2.46735,18.9194 2.45046,18.7154 2.45507,7.70823 2.45507,7.70823 2.32912,4.95717 4.54394,2.62742 7.40233,2.5062 7.61582,2.49586 17.8605,2.51507 17.8605,2.51507 c 2.8569,-0.21287 5.3528,1.84488 5.574,4.59594 0.0153,0.19808 0.0107,11.19639 0.0107,11.19639 z"
     stroke="white"
     stroke-width="3.11111"
     stroke-linecap="round"
     stroke-linejoin="round"
     id="path1"
     style="stroke:#00991c;stroke-opacity:1" />
  <path
     d="m 23.45,9.96969 4.9395,-4.0425 c 1.224,-1.002 3.0599,-0.129 3.0584,1.4505 L 31.43,18.4012 c -0.0015,1.5795 -1.839,2.445 -3.06,1.443 l -4.92,-4.0425"
     stroke="white"
     stroke-width="3.11111"
     stroke-linecap="round"
     stroke-linejoin="round"
     id="path2"
     style="stroke:#00991c;stroke-opacity:1" />
</svg>
