<?xml version="1.0" encoding="UTF-8" standalone="no"?>
<svg
   width="22"
   height="16"
   viewBox="0 0 22 16"
   fill="none"
   version="1.1"
   id="svg2"
   xmlns="http://www.w3.org/2000/svg"
   xmlns:svg="http://www.w3.org/2000/svg">
  <defs
     id="defs2" />
  <path
     fill-rule="evenodd"
     clip-rule="evenodd"
     d="m 15.2968,11.5383 c 0.0809,1.8321 -1.3977,3.3813 -3.3022,3.4592 C 11.8543,15.0034 5.01526,14.9896 5.01526,14.9896 3.11991,15.1335 1.4611,13.7715 1.3116,11.9463 1.30034,11.8103 1.30341,4.47219 1.30341,4.47219 1.21945,2.63815 2.69599,1.08499 4.60158,1.00418 4.74391,0.997278 11.5737,1.01009 11.5737,1.01009 c 1.9046,-0.141914 3.5685,1.22992 3.716,3.06396 0.0102,0.13205 0.0071,7.46425 0.0071,7.46425 z"
     stroke="#C9DDFF"
     stroke-width="2"
     stroke-linecap="round"
     stroke-linejoin="round"
     id="path1"
     style="stroke:#00991c;stroke-opacity:1" />
  <path
     d="m 15.3,5.97984 3.293,-2.695 c 0.816,-0.668 2.04,-0.086 2.039,0.967 L 20.62,11.6008 c -0.001,1.053 -1.226,1.63 -2.04,0.962 L 15.3,9.86784"
     stroke="#C9DDFF"
     stroke-width="2"
     stroke-linecap="round"
     stroke-linejoin="round"
     id="path2"
     style="stroke:#00991c;stroke-opacity:1" />
</svg>
